<svg width="111" height="30" viewBox="0 0 111 30" fill="none" xmlns="http://www.w3.org/2000/svg">
<path d="M81.371 6.92558C81.7668 7.05996 82.1262 7.28394 82.421 7.57977C82.7178 7.87354 82.9418 8.23396 83.0751 8.62981C83.1345 8.69023 83.2168 8.72461 83.3012 8.72461C83.3866 8.72461 83.4678 8.69023 83.5283 8.62981L86.0408 6.1172L86.0397 6.11824C86.3345 5.82238 86.4949 5.41925 86.4856 5.00256C86.4752 4.58588 86.2949 4.19106 85.9866 3.90979C85.3658 3.36915 84.4304 3.40457 83.8533 3.99209L81.373 6.47241C81.3126 6.53179 81.2782 6.61408 81.2782 6.69846C81.2772 6.78388 81.3105 6.86516 81.371 6.92558Z" fill="white"/>
<path d="M79.2 7.83284C79.1531 7.87451 79.126 7.93492 79.126 7.99743C79.126 8.06097 79.1531 8.12139 79.2 8.16306L81.8375 10.8007C81.8823 10.8455 81.9438 10.8694 82.0073 10.8653C82.0698 10.8621 82.1292 10.8319 82.1677 10.7819C82.8271 9.94127 82.7521 8.74122 81.9948 7.98793C81.2375 7.23582 80.0363 7.16823 79.2 7.83284Z" fill="white"/>
<path d="M85.7177 7.17687L85.1843 7.71022L85.5791 8.10504L85.152 8.53423C85.0854 8.59986 85.0489 8.69049 85.0489 8.7832C85.0489 8.87696 85.0854 8.96654 85.152 9.03321L88 11.8968C88.0657 11.9635 88.1563 12.001 88.249 12.001C88.3428 12.001 88.4323 11.9635 88.499 11.8968L89.8959 10.4999C89.9626 10.4332 90.0001 10.3436 90.0001 10.2499C90.0001 10.1571 89.9626 10.0665 89.8959 10.0009L87.0396 7.14449C86.974 7.07886 86.8844 7.04136 86.7907 7.04136C86.6969 7.04136 86.6073 7.07886 86.5417 7.14449L86.1146 7.5716L85.7177 7.17687ZM88.9969 9.76135L89.2177 9.9822H89.2188C89.2448 10.0093 89.2604 10.0447 89.2604 10.0822C89.2604 10.1197 89.2448 10.1562 89.2188 10.1822L88.1813 11.2197C88.1552 11.2458 88.1188 11.2614 88.0813 11.2614C88.0438 11.2614 88.0083 11.2458 87.9813 11.2197L87.7604 10.9989V10.9979C87.7333 10.9718 87.7188 10.9354 87.7188 10.8979C87.7188 10.8604 87.7333 10.8249 87.7604 10.7979L88.8 9.76135C88.8552 9.70719 88.9427 9.70719 88.9969 9.76135ZM88.0292 8.79048L88.25 9.01445H88.251C88.2771 9.04049 88.2917 9.07696 88.2917 9.11446C88.2917 9.15196 88.2771 9.18738 88.251 9.21446L87.2 10.252C87.174 10.278 87.1375 10.2926 87.1 10.2926C87.0625 10.2926 87.026 10.278 87 10.252L86.776 10.028C86.7229 9.97282 86.7229 9.88532 86.776 9.83011L87.8156 8.79049C87.8437 8.76028 87.8823 8.74257 87.9229 8.74257C87.9635 8.74257 88.0021 8.76027 88.0292 8.79048ZM86.8583 7.82274V7.82169C86.8854 7.79565 86.9208 7.78107 86.9583 7.78107C86.9958 7.78107 87.0323 7.79565 87.0583 7.82169L87.2802 8.04358C87.3063 8.06962 87.3219 8.10608 87.3219 8.14358C87.3219 8.18108 87.3063 8.21754 87.2802 8.24359L86.2427 9.28113C86.2167 9.30717 86.1802 9.32279 86.1427 9.32279C86.1052 9.32279 86.0688 9.30717 86.0427 9.28113L85.8208 9.05924C85.7948 9.0332 85.7802 8.99674 85.7802 8.95924C85.7802 8.92174 85.7948 8.88632 85.8208 8.85923L86.8583 7.82274Z" fill="white"/>
<path d="M78.1042 2.00044L80.9605 4.85683C81.0261 4.92246 81.1157 4.95996 81.2095 4.95996C81.3032 4.95996 81.3928 4.92246 81.4584 4.85683L81.8855 4.42972L82.2824 4.82454L82.8158 4.29118L82.421 3.89428L82.848 3.46717C82.9147 3.40154 82.9512 3.31091 82.9512 3.2182C82.9512 3.12445 82.9147 3.03486 82.848 2.96819L80 0.104595C79.9344 0.0379252 79.8438 0.000425816 79.7511 0.000425816C79.6573 0.000425816 79.5677 0.0379252 79.5011 0.104595L78.1042 1.50154C78.0375 1.56821 78 1.6578 78 1.75155C78 1.84426 78.0376 1.93481 78.1042 2.00044ZM81.9573 2.72026L82.1792 2.94214C82.2052 2.96818 82.2198 3.00464 82.2198 3.04215C82.2198 3.07965 82.2052 3.11507 82.1792 3.14215L81.1417 4.17969C81.1146 4.20573 81.0792 4.22031 81.0417 4.22031C81.0042 4.22031 80.9677 4.20573 80.9417 4.17969L80.7198 3.9578C80.6938 3.93176 80.6782 3.8953 80.6782 3.8578C80.6782 3.8203 80.6938 3.78384 80.7198 3.7578L81.7573 2.72026C81.7834 2.69421 81.8198 2.67859 81.8573 2.67859C81.8948 2.67859 81.9313 2.69421 81.9573 2.72026ZM80.9865 1.74939L81.2105 1.97023V1.97127C81.2646 2.02648 81.2646 2.11503 81.2105 2.17128L80.1709 3.2109C80.1157 3.26507 80.0282 3.26507 79.973 3.2109L79.749 2.98693C79.6959 2.93172 79.6959 2.84317 79.749 2.78692L80.7865 1.74938C80.8427 1.69625 80.9313 1.69626 80.9865 1.74939ZM78.7813 1.81918L79.8188 0.781641C79.8448 0.755598 79.8813 0.739973 79.9188 0.739973C79.9563 0.739973 79.9917 0.755598 80.0188 0.781641L80.2396 1.00248V1.00353C80.2667 1.02957 80.2813 1.06603 80.2813 1.10353C80.2813 1.14103 80.2667 1.17645 80.2396 1.20353L79.2 2.24003C79.174 2.26712 79.1375 2.2817 79.1 2.2817C79.0625 2.2817 79.0261 2.26712 79 2.24003L78.7792 2.01919C78.7521 1.99211 78.7386 1.95564 78.7386 1.91814C78.7386 1.88064 78.7542 1.84522 78.7813 1.81918Z" fill="white"/>
<path d="M19.785 26H16.065V15.995H19.785C22.905 15.995 25.02 18.065 25.02 21.005C25.02 23.945 22.905 26 19.785 26ZM19.785 24.455C21.96 24.455 23.22 22.895 23.22 21.005C23.22 19.07 22.02 17.54 19.785 17.54H17.82V24.455H19.785ZM35.9544 26H33.9294L31.7094 22.265H29.9694V26H28.2144V15.995H32.6094C34.5894 15.995 35.8794 17.285 35.8794 19.13C35.8794 20.915 34.7094 21.875 33.5094 22.07L35.9544 26ZM32.3694 20.72C33.3594 20.72 34.0794 20.09 34.0794 19.13C34.0794 18.17 33.3594 17.54 32.3694 17.54H29.9694V20.72H32.3694ZM48.1334 26H46.1384L45.4034 24.08H40.8134L40.0784 26H38.0834L42.0134 15.995H44.2034L48.1334 26ZM44.9084 22.535L43.1084 17.765L41.3084 22.535H44.9084ZM59.3961 26H57.7011L52.4811 18.86V26H50.7261V15.995H52.5261L57.6411 22.94V15.995H59.3961V26ZM67.822 26.195C64.927 26.195 62.572 24.14 62.572 21.005C62.572 17.87 64.927 15.83 67.822 15.83C69.772 15.83 71.047 16.76 71.857 17.915L70.417 18.725C69.892 17.975 68.947 17.39 67.822 17.39C65.842 17.39 64.372 18.905 64.372 21.005C64.372 23.105 65.842 24.635 67.822 24.635C68.842 24.635 69.742 24.155 70.192 23.735V22.175H67.207V20.63H71.947V24.38C70.957 25.475 69.562 26.195 67.822 26.195ZM79.609 26.18C76.699 26.18 75.274 24.515 75.274 22.055V15.995H77.044V21.995C77.044 23.585 77.929 24.62 79.609 24.62C81.274 24.62 82.159 23.585 82.159 21.995V15.995H83.929V22.04C83.929 24.53 82.504 26.18 79.609 26.18ZM94.4102 26H87.5552V15.995H94.4102V17.54H89.3102V20.135H94.3052V21.68H89.3102V24.455H94.4102V26Z" fill="white"/>
<path d="M96.7256 19.8335C96.9832 19.9386 97.255 19.9091 97.519 19.8702C98.5625 19.7173 99.562 19.3929 100.53 18.9956C103.268 17.8718 105.704 16.295 107.695 14.0795C108.438 13.2531 109.058 12.3498 109.277 11.2337C109.556 9.81248 109.383 8.44854 108.713 7.15639C108.69 7.11281 108.662 7.07221 108.618 7C108.504 7.34184 108.401 7.65761 108.293 7.97125C107.537 10.1624 106.141 11.8221 104.131 12.9706C103.77 13.1775 103.412 13.3915 103.044 13.5855C102.275 13.9915 101.657 14.5726 101.087 15.217C100.185 16.2339 99.2381 17.2052 98.2027 18.0871C98.1771 18.1089 98.1365 18.1128 98.1326 18.1623C100.447 17.1556 102.763 16.1754 104.928 14.8666C104.648 15.1123 104.375 15.3674 104.087 15.6024C102.753 16.6869 101.273 17.5368 99.741 18.2995C98.8484 18.7439 97.9399 19.1558 97.0392 19.584C96.9255 19.6382 96.8174 19.704 96.7068 19.7643C96.7127 19.7873 96.7196 19.8104 96.7256 19.8335ZM101.681 19.0135C103.116 18.9883 104.509 19.0716 105.835 18.5606C107.559 17.8961 108.988 16.8616 109.952 15.2541C110.331 14.6226 110.553 13.9334 110.583 13.195C110.595 12.9224 110.547 12.6472 110.526 12.3729C110.5 12.3694 110.475 12.3664 110.45 12.363C110.415 12.4015 110.374 12.4357 110.347 12.4788C109.114 14.4961 107.379 15.9605 105.312 17.0625C104.115 17.7008 102.923 18.3461 101.681 19.0135ZM109.319 17.6034C109.239 17.6444 109.156 17.6816 109.077 17.7273C107.324 18.7593 105.431 19.3592 103.41 19.5626C102.661 19.6382 101.905 19.6681 101.162 19.7844C100.642 19.8655 100.141 20.0706 99.6265 20.1971C98.8125 20.3975 97.9942 20.5783 97.1776 20.768C97.1234 20.7808 97.07 20.7971 96.9657 20.8253C97.5725 20.8564 98.1258 20.8893 98.6796 20.9128C100.194 20.9769 101.708 21.0902 103.221 21.0855C105.16 21.0799 106.921 20.483 108.42 19.2139C108.78 18.9092 109.066 18.5384 109.26 18.1068C109.325 17.9628 109.349 17.8004 109.391 17.6466C109.367 17.632 109.343 17.6179 109.319 17.6034ZM107.061 21.0504C106.566 21.1607 106.15 21.2637 105.73 21.3457C104.622 21.5619 103.508 21.6824 102.374 21.6922C100.989 21.7038 99.6047 21.788 98.2194 21.8333C97.8041 21.8469 97.3879 21.8354 96.9721 21.8354C96.967 21.8696 96.9618 21.9033 96.9571 21.9375C97.6207 22.149 98.2771 22.3892 98.9496 22.5656C99.844 22.8002 100.742 23.0476 101.654 23.1784C103.129 23.3895 104.566 23.219 105.877 22.4357C106.269 22.2016 106.604 21.8961 106.85 21.5059C106.927 21.3829 106.974 21.2402 107.061 21.0504ZM104.883 23.4852C102.195 23.9326 99.5321 23.9928 96.9298 23.0173C98.1946 23.8253 99.4325 24.6838 100.987 24.8376C101.95 24.9329 102.901 24.888 103.797 24.4949C104.125 24.3513 104.418 24.1184 104.707 23.8988C104.812 23.8189 104.857 23.6604 104.93 23.5377C104.914 23.5202 104.898 23.5027 104.883 23.4852ZM96 23.7552C96.3273 24.1142 96.6422 24.4855 96.9845 24.8295C97.7284 25.576 98.5313 26.2477 99.5295 26.6369C100.198 26.8976 100.884 27.0873 101.609 26.9587C101.836 26.9185 102.059 26.8181 102.264 26.7083C102.427 26.6211 102.408 26.5327 102.232 26.4596C100.708 25.8293 99.262 25.0243 97.687 24.5086C97.1135 24.321 96.5854 23.995 96.0363 23.7326C96.0244 23.7403 96.012 23.7475 96 23.7552Z" fill="white"/>
<path d="M13.8594 19.8335C13.6017 19.9386 13.33 19.9091 13.0659 19.8702C12.0224 19.7173 11.023 19.3929 10.0547 18.9956C7.317 17.8718 4.88097 16.295 2.88976 14.0795C2.14669 13.2531 1.52711 12.3498 1.3079 11.2337C1.02845 9.81248 1.20151 8.44854 1.87236 7.15639C1.89501 7.11281 1.92321 7.07221 1.96722 7C2.08131 7.34184 2.18386 7.65761 2.29197 7.97125C3.04829 10.1624 4.44427 11.8221 6.45343 12.9706C6.81493 13.1775 7.17258 13.3915 7.54048 13.5855C8.30962 13.9915 8.92749 14.5726 9.49836 15.217C10.3995 16.2339 11.3469 17.2052 12.3822 18.0871C12.4078 18.1089 12.4484 18.1128 12.4523 18.1623C10.138 17.1556 7.82207 16.1754 5.65652 14.8666C5.93683 15.1123 6.20945 15.3674 6.4983 15.6024C7.83147 16.6869 9.31206 17.5368 10.8439 18.2995C11.7366 18.7439 12.645 19.1558 13.5457 19.584C13.6594 19.6382 13.7675 19.704 13.8782 19.7643C13.8722 19.7873 13.8662 19.8108 13.8602 19.8339L13.8594 19.8335ZM5.27281 17.0625C3.20596 15.9605 1.4707 14.4961 0.237519 12.4788C0.211027 12.4357 0.169579 12.4015 0.135395 12.363C0.110184 12.3664 0.0845463 12.3694 0.0593357 12.3729C0.038398 12.6468 -0.00945951 12.9224 0.00165025 13.195C0.0324158 13.9334 0.253757 14.6226 0.632771 15.2541C1.59718 16.8612 3.0265 17.8961 4.74979 18.5606C6.0757 19.0716 7.46869 18.9883 8.90442 19.0135C7.66226 18.3461 6.46924 17.7013 5.27238 17.0629L5.27281 17.0625ZM1.19381 17.6461C1.23612 17.8 1.26004 17.9624 1.32457 18.1063C1.51899 18.5379 1.80528 18.9092 2.16506 19.2135C3.66403 20.4826 5.4245 21.0795 7.36358 21.085C8.8775 21.0893 10.3914 20.9765 11.9053 20.9124C12.4591 20.8889 13.0125 20.856 13.6192 20.8248C13.515 20.7966 13.4616 20.7804 13.4073 20.7676C12.5907 20.5778 11.7724 20.3971 10.9584 20.1967C10.4435 20.0698 9.94361 19.8651 9.42273 19.7839C8.68009 19.6677 7.92462 19.6378 7.17514 19.5622C5.15445 19.3583 3.26066 18.7584 1.50745 17.7269C1.42968 17.6812 1.34636 17.644 1.2656 17.603C1.24167 17.6175 1.21731 17.6316 1.19339 17.6461H1.19381ZM3.73624 21.5055C3.98151 21.8956 4.31651 22.2012 4.70877 22.4353C6.02015 23.2186 7.45673 23.3895 8.93134 23.178C9.84362 23.0472 10.7422 22.7998 11.6361 22.5652C12.3091 22.3887 12.965 22.1486 13.6286 21.9371C13.6235 21.9029 13.6184 21.8691 13.6137 21.835C13.1979 21.835 12.7817 21.8465 12.3664 21.8328C10.9811 21.7875 9.59664 21.7038 8.21134 21.6918C7.07814 21.6824 5.96332 21.5615 4.85534 21.3453C4.4353 21.2632 4.01954 21.1607 3.52516 21.05C3.6119 21.2397 3.65847 21.382 3.73624 21.5055ZM5.65609 23.5377C5.72873 23.6604 5.77403 23.8189 5.87914 23.8988C6.16757 24.118 6.4607 24.3509 6.78886 24.4949C7.68534 24.8876 8.63565 24.9324 9.59878 24.8376C11.1533 24.6842 12.3912 23.8257 13.656 23.0173C11.0537 23.9928 8.39038 23.9326 5.70267 23.4852C5.68729 23.5027 5.67148 23.5202 5.65609 23.5377ZM14.5495 23.7326C14.0004 23.9954 13.4722 24.321 12.8988 24.5086C11.3234 25.0243 9.87695 25.8293 8.35406 26.4596C8.17758 26.5327 8.15921 26.6207 8.32158 26.7083C8.52669 26.8185 8.75016 26.9185 8.97706 26.9587C9.70176 27.0873 10.3876 26.8976 11.0563 26.6369C12.0545 26.2472 12.8574 25.576 13.6013 24.8295C13.944 24.4859 14.2585 24.1142 14.5858 23.7552C14.5738 23.7475 14.5614 23.7403 14.5495 23.7326Z" fill="white"/>
</svg>
